# xmcd
#
# Track frame offsets:
#	150
#	21385
#	52548
#	79895
#	110161
#	124947
#	141538
#	161290
#	175501
#	193297
#	209087
#
# Disc length: 3068 seconds
#
# Revision: 1
# Processed by: cddbd v1.5.2PL0 Copyright (c) Steve Scherf et al.
# Submitted via: audiograbber 1.83.01
#
DISCID=9f0bfa0b
DTITLE=Daryl Lee Rush - Live from the River Road Icehouse
DYEAR=2007
DGENRE=Country Rock
TTITLE0=Lot
TTITLE1=Town Too Tough to Die
TTITLE2=Irrelevant
TTITLE3=Uncle Freddie Drove a Tractor
TTITLE4=White Trash Paradise
TTITLE5=Johnny Come Lately
TTITLE6=Smuggler's Prayer
TTITLE7=Lorraine
TTITLE8=Truale
TTITLE9=Texas Music
TTITLE10=Shotgun Annie
EXTD=
EXTT0=
EXTT1=
EXTT2=
EXTT3=
EXTT4=
EXTT5=
EXTT6=
EXTT7=
EXTT8=
EXTT9=
EXTT10=
PLAYORDER=
